<svg xmlns="http://www.w3.org/2000/svg" width="100" height="30" viewBox="0 0 100 30">
    <g fill="none" fill-rule="evenodd">
        <g fill="#0066A9" fill-rule="nonzero">
            <g>
                <g>
                    <g>
                        <path d="M18.645 8.947l.547-2.194H11l-2.631 10.12h8.334l.582-2.194h-5.473l.494-1.939h4.609l.547-2.075h-4.608l.441-1.718h5.35zm-1.942 2.313l-.247.953h-4.609l-.794 3.062h5.473l-.282 1.071H9.11l2.348-8.998h6.992l-.265 1.072h-5.35l-.741 2.857h4.608v-.017zM96.226 16.602v-1.633H91.16V7.042h-1.924v9.56h6.991zm-16.155-5.937c.124-.374.318-.714.547-1.02.248-.307.548-.545.9-.732.372-.187.778-.272 1.237-.272.441 0 .847.085 1.2.255.353.17.654.408.9.715.248.289.442.646.566 1.02.141.391.194.783.194 1.19 0 .392-.07.783-.194 1.174-.124.375-.318.732-.565 1.038-.247.306-.548.544-.9.731-.354.188-.778.273-1.237.273-.459 0-.865-.085-1.218-.273-.353-.187-.67-.425-.9-.714-.248-.29-.442-.63-.565-1.02-.124-.392-.195-.783-.195-1.191.036-.408.106-.8.23-1.174m4.626 5.613c.6-.272 1.112-.612 1.536-1.071.424-.443.76-.953 1.006-1.531.248-.578.371-1.19.371-1.82 0-.596-.123-1.19-.353-1.786-.23-.579-.565-1.106-.971-1.565-.424-.46-.918-.834-1.518-1.106-.6-.289-1.254-.425-1.96-.425-.707 0-1.342.136-1.942.391-.6.272-1.113.63-1.554 1.072-.442.442-.777.97-1.024 1.548-.247.578-.371 1.19-.371 1.837 0 .612.124 1.207.353 1.786.23.578.565 1.105.989 1.548.424.459.936.816 1.518 1.088.6.272 1.254.409 1.978.409.706.017 1.36-.12 1.942-.375M71.013 8.675h2.331c.177 0 .335.034.494.12.16.067.3.186.442.322.123.136.23.306.3.494.07.187.106.39.106.612 0 .221-.035.425-.106.612-.07.187-.159.357-.265.494-.106.136-.247.255-.406.323-.159.085-.318.119-.494.119h-2.42V8.675h.018zm0 7.927v-3.198h1.907l2.03 3.198h2.172l-2.26-3.59c.548-.22.99-.595 1.307-1.105.318-.51.477-1.072.477-1.684 0-.391-.071-.766-.23-1.157-.159-.374-.37-.714-.653-1.02-.283-.307-.618-.545-1.007-.732-.388-.187-.812-.272-1.27-.272h-4.397v9.56h1.924zm-3.301-9.56h-8.263v1.633h3.178v7.927h1.924V8.675h3.178V7.042h-.017zm-11.194 9.56h1.571V7.059h-1.925v6.26l-5.173-6.277h-1.5v9.56h1.924v-6.124l5.103 6.124zm-16.209-5.937c.124-.374.318-.714.547-1.02.248-.307.548-.545.901-.732.37-.187.777-.272 1.236-.272.441 0 .847.085 1.218.255.353.17.653.408.9.715.248.289.442.646.566 1.02.14.391.194.783.194 1.19 0 .392-.07.783-.194 1.174-.124.375-.318.732-.565 1.038-.248.306-.548.544-.9.731-.354.188-.778.273-1.237.273-.459 0-.865-.085-1.218-.273-.353-.187-.671-.425-.9-.714-.248-.29-.442-.63-.565-1.02-.124-.392-.195-.783-.195-1.191.036-.408.089-.8.212-1.174m4.644 5.613c.6-.272 1.112-.612 1.536-1.071.424-.443.76-.953 1.006-1.531.247-.578.371-1.19.371-1.82 0-.596-.124-1.19-.353-1.786-.23-.579-.565-1.106-.971-1.565-.424-.46-.918-.834-1.519-1.106-.6-.289-1.253-.425-1.96-.425-.706 0-1.341.136-1.942.391-.6.272-1.112.63-1.553 1.072-.442.442-.777.97-1.024 1.548-.248.578-.371 1.19-.371 1.837 0 .612.123 1.207.353 1.786.23.578.565 1.105.989 1.548.423.459.935.816 1.518 1.088.6.272 1.254.409 1.978.409.688.017 1.341-.12 1.942-.375m-16.067-2.721c.23.595.565 1.105.988 1.582.424.459.936.833 1.519 1.122.582.29 1.236.426 1.942.426.406 0 .812-.051 1.236-.154.424-.102.812-.238 1.183-.425.37-.187.706-.425.989-.697.3-.272.512-.595.67-.953l-1.57-.867c-.107.255-.266.476-.442.663-.194.187-.389.34-.6.46-.212.119-.442.204-.69.255-.246.05-.476.085-.705.085-.424 0-.83-.085-1.183-.273-.354-.187-.671-.425-.919-.714-.264-.29-.459-.646-.6-1.038-.141-.39-.212-.799-.212-1.224 0-.374.053-.749.177-1.14.123-.374.3-.714.53-1.02.23-.307.53-.545.9-.732.353-.187.777-.289 1.271-.289.23 0 .46.017.689.068.23.051.459.136.67.238.213.102.407.255.601.442s.353.409.477.68l1.483-.986c-.318-.612-.83-1.122-1.483-1.514-.671-.39-1.448-.578-2.366-.578-.777 0-1.466.136-2.066.425-.6.272-1.112.647-1.536 1.089-.424.442-.742.952-.953 1.53-.212.58-.336 1.14-.336 1.736-.018.612.106 1.207.336 1.803m-3.267-2.688h-4.237v1.633h4.237V10.87z" transform="translate(-732 -648) translate(608 645) translate(124 3) translate(1.887 2.813)"/>
                        <path d="M21.1 16.482c-1.625 2.62-4.627 4.372-8.07 4.372-5.155 0-9.322-3.93-9.322-8.794 0-4.848 4.184-8.794 9.322-8.794 1.36 0 2.631.272 3.796.765l1.572-2.874C16.72.408 14.867 0 12.889 0 5.774 0 0 5.46 0 12.179c0 6.736 5.774 12.196 12.907 12.196 4.979 0 9.287-2.654 11.44-6.566L21.1 16.482z" transform="translate(-732 -648) translate(608 645) translate(124 3) translate(1.887 2.813)"/>
                    </g>
                </g>
            </g>
        </g>
    </g>
</svg>
